<!--SVG sprite-->
<svg xmlns="http://www.w3.org/2000/svg" aria-hidden="true" style="position:absolute;width:0;height:0;overflow:hidden">
  <defs>
    <!--Logo зображення яхти для header та footer-->
    <symbol id="icon-logo" viewBox="0 0 32 32">
      <path
        d="M31.94 24.371a.505.505 0 0 0-.445-.266H19.026v-4.156h10.747a.505.505 0 0 0 .416-.789L19.026 2.882v-.654a.504.504 0 1 0-1.008 0v3.403L10.991 18.34a.504.504 0 0 0 .441.748h5.414a.504.504 0 1 0 0-1.008h-4.559l5.73-10.364v16.39h-1.029v-.249a3.199 3.199 0 0 0-3.195-3.195H9.616V8.993a.504.504 0 1 0-1.008 0v.148l-6.8 10.021a.502.502 0 0 0 .418.787h5.165a.504.504 0 1 0 0-1.008H3.178l5.431-8.003v9.725H7.392a.504.504 0 0 0-.504.504v1.217H3.949a.504.504 0 0 0-.504.504v1.217H.506a.506.506 0 0 0-.478.663l1.722 5.165a.505.505 0 0 0 .479.345h25.826a.504.504 0 0 0 .42-.225l3.443-5.165a.505.505 0 0 0 .025-.518zm-3.124-5.432h-9.79V4.664l9.79 14.275zm-1.034 10.33H2.59l-1.385-4.156h13.256a.504.504 0 1 0 0-1.008H4.453v-.713h2.939a.504.504 0 0 0 .504-.504v-1.217h5.898c.638 0 1.214.275 1.614.713H9.544a.504.504 0 1 0 0 1.008h6.386c.032.15.05.305.05.464v.753a.504.504 0 0 0 .587.497.457.457 0 0 0 .083.007h13.903l-2.771 4.156z" />
    </symbol>
    <!-- Burger Menu -->
    <symbol id="burger" viewBox="0 0 32 32">
      <path
        d="M2.667 7.993c0-0.733 0.595-1.327 1.327-1.327h10.68c0.352 0 0.689 0.14 0.938 0.389s0.389 0.586 0.389 0.938c0 0.352-0.14 0.689-0.389 0.938s-0.586 0.389-0.938 0.389h-10.68c-0.352 0-0.689-0.14-0.938-0.389s-0.389-0.586-0.389-0.938zM2.667 16c0-0.733 0.595-1.327 1.327-1.327h24.013c0.352 0 0.689 0.14 0.938 0.389s0.389 0.586 0.389 0.938c0 0.352-0.14 0.689-0.389 0.938s-0.586 0.389-0.938 0.389h-24.013c-0.352 0-0.689-0.14-0.938-0.389s-0.389-0.586-0.389-0.938zM3.993 22.68c-0.352 0-0.689 0.14-0.938 0.389s-0.389 0.586-0.389 0.938c0 0.352 0.14 0.689 0.389 0.938s0.586 0.389 0.938 0.389h16.013c0.352 0 0.689-0.14 0.938-0.389s0.389-0.586 0.389-0.938c0-0.352-0.14-0.689-0.389-0.938s-0.586-0.389-0.938-0.389h-16.013z">
      </path>
    </symbol>
    <!--Ліва та права стрілочки для "Swiper" в блоці "YahtsBlock"-->
    <symbol id="icon-arrow-left" viewBox="0 0 58 32">
      <path d="M17.6 2.144 0 16l17.6 13.856V18.4h40v-4.8h-40V2.144z" />
    </symbol>
    <symbol id="icon-arrow-right" viewBox="0 0 58 32">
      <path d="M40 2.144 57.6 16 40 29.856V18.4H0v-4.8h40V2.144z" />
    </symbol>
    <!--Стрілочка вгору для кнопки "Back to top"-->
    <symbol id="icon-arrow-up" viewBox="0 0 17 32">
      <path d="M0 9.778 8.533 0l8.533 9.778h-7.055V32H7.055V9.778H0z" />
    </symbol>
    <!--Хрестик-кнопка для модального вікна в блоці "RentBlock"-->
    <symbol id="icon-close-modal" viewBox="0 0 32 32">
      <path stroke-linecap="round" stroke-linejoin="round" stroke-width="1.733" d="M24 8 8 24M8 8l16 16" />
    </symbol>
    <!--Іконки-посилання на соціальні мережі в блоці "Footer"-->
    <symbol id="icon-facebook" viewBox="0 0 18 32">
      <path
        d="M14.45 5.602h2.924V.655a40.727 40.727 0 0 0-4.262-.218c-4.231 0-7.124 2.582-7.124 7.311v4.076H1.212v5.538h4.776v14.187h5.724V17.362h4.76l.716-5.538h-5.476V8.293c0-1.633.436-2.691 2.738-2.691z" />
    </symbol>
    <symbol id="icon-instagram" viewBox="0 0 32 32">
      <path
        d="M23.983 6.229a1.794 1.794 0 0 0-1.758 2.141 1.794 1.794 0 0 0 2.443 1.306 1.79 1.79 0 0 0 1.106-1.656 1.792 1.792 0 0 0-1.792-1.792zm6.869 3.614a11.33 11.33 0 0 0-.687-3.629 7.38 7.38 0 0 0-1.732-2.643 7.01 7.01 0 0 0-2.643-1.717 10.905 10.905 0 0 0-3.629-.702c-1.583-.09-2.091-.09-6.152-.09s-4.57 0-6.152.09a10.905 10.905 0 0 0-3.629.702 7.135 7.135 0 0 0-2.643 1.717 7.01 7.01 0 0 0-1.717 2.643 10.905 10.905 0 0 0-.702 3.629c-.09 1.583-.09 2.091-.09 6.153s0 4.57.09 6.152c.026 1.241.263 2.468.702 3.629.365 1 .952 1.904 1.717 2.643a7.135 7.135 0 0 0 2.643 1.717c1.161.439 2.388.676 3.629.702 1.583.09 2.091.09 6.152.09s4.57 0 6.152-.09a10.905 10.905 0 0 0 3.629-.702c1-.365 1.904-.952 2.643-1.717a7.243 7.243 0 0 0 1.732-2.643 11.33 11.33 0 0 0 .687-3.629c0-1.583.09-2.091.09-6.152s0-4.57-.09-6.153zm-2.688 12.126a8.39 8.39 0 0 1-.508 2.778 4.556 4.556 0 0 1-1.12 1.717 4.763 4.763 0 0 1-1.717 1.12 8.39 8.39 0 0 1-2.778.508c-1.493.075-2.046.09-5.973.09s-4.48 0-5.973-.09a8.566 8.566 0 0 1-2.897-.448 4.885 4.885 0 0 1-1.643-1.12 4.48 4.48 0 0 1-1.105-1.717 8.25 8.25 0 0 1-.597-2.837c0-1.493-.09-2.046-.09-5.973s0-4.48.09-5.973a8.281 8.281 0 0 1 .523-2.837 4.482 4.482 0 0 1 1.18-1.643 4.7 4.7 0 0 1 1.643-1.195 8.58 8.58 0 0 1 2.837-.508c1.493 0 2.046-.09 5.973-.09s4.48 0 5.973.09a8.39 8.39 0 0 1 2.778.508 4.56 4.56 0 0 1 1.7771.195c.489.459.872 1.02 1.12 1.643a8.37 8.37 0 0 1 .508 2.837c.075 1.493.09 2.046.09 5.973s-.015 4.48-.09 5.973zM16.008 8.335a7.667 7.667 0 0 0-7.067 4.739 7.66 7.66 0 0 0 10.017 9.997 7.657 7.657 0 0 0 4.726-7.077 7.645 7.645 0 0 0-7.675-7.66zm0 12.634a4.979 4.979 0 0 1-4.595-3.07 4.975 4.975 0 0 1 3.624-6.78 4.974 4.974 0 0 1 5.564 6.781 4.965 4.965 0 0 1-2.691 2.691 4.97 4.97 0 0 1-1.903.379z" />
    </symbol>
    <symbol id="icon-youtube" viewBox="0 0 46 32">
      <path
        d="M35.806.285c-2.137-.126-6.537-.251-13.2-.251h-.88C15.315.034 11.04.16 8.903.411 6.012.662 4 1.417 2.869 2.422c-1.006.88-1.76 2.514-2.011 4.651-.126 1.383-.251 4.274-.251 8.674v.629c0 4.149.126 7.04.377 8.423.377 2.011 1.006 3.52 2.263 4.4 1.257 1.006 3.394 1.634 6.411 1.886 2.137.126 6.537.251 13.2.251h.88c6.411 0 10.686-.126 12.823-.377 2.891-.251 4.903-1.006 6.034-2.011 1.006-.88 1.76-2.514 2.011-4.651.126-1.383.251-4.274.251-8.674v-.629c0-4.149-.126-7.04-.377-8.423-.377-2.011-1.006-3.52-2.263-4.4C40.96 1.165 38.823.537 35.806.285zm-4.903 15.463-13.828 8.297V7.451l13.828 8.297z" />
    </symbol>
  </defs>
</svg>