<svg width="1280" height="1803" viewBox="0 0 1280 1803" fill="none" xmlns="http://www.w3.org/2000/svg">
<g opacity="0.15">
<path opacity="0.0526316" d="M357.685 274.258C305.626 294.881 209.186 373.801 239.893 524.5C278.277 712.873 462.952 817.311 533.361 992.159C585.328 1121.21 634.715 1451.19 471.211 1605.25" stroke="#F6F5EF" stroke-width="1.45842"/>
<path opacity="0.105263" d="M460 263.341C405.421 279.125 299.305 348.688 311.475 500.664C326.688 690.635 498.471 810.518 547.363 989.949C583.449 1122.38 592.252 1453.57 409.852 1591.57" stroke="#F6F5EF" stroke-width="1.45842"/>
<path opacity="0.157895" d="M561.768 259.805C505.559 270.575 391.516 330.007 385.016 481.572C376.893 671.029 533.051 805.026 559.71 987.044C579.387 1121.39 547.603 1450.1 349.322 1570.51" stroke="#F6F5EF" stroke-width="1.45842"/>
<path opacity="0.210526" d="M1289.4 296.891C696.863 50.0035 484.062 317.787 458.984 467.303C427.637 654.199 567.398 800.862 571.751 983.502C574.964 1118.3 502.884 1441 289.811 1542.5" stroke="#F6F5EF" stroke-width="1.45842"/>
<path opacity="0.263158" d="M1249.41 315.114C810.483 127.587 576.503 311.944 533.128 457.746C478.909 639.997 600.536 797.693 582.5 978.918C569.187 1112.68 457.638 1425.75 232.365 1507.22" stroke="#F6F5EF" stroke-width="1.45842"/>
<path opacity="0.315789" d="M1240.72 324.98C964.938 203.228 668.18 312.474 606.981 452.964C530.483 628.576 632.642 795.574 592.41 973.402C562.716 1104.65 412.916 1404.67 177.909 1465.23" stroke="#F6F5EF" stroke-width="1.45842"/>
<path opacity="0.368421" d="M1237.76 341.071C1023.54 252.421 758.317 319.236 679.963 452.877C582.021 619.928 663.591 794.398 601.603 966.879C555.851 1094.18 369.437 1377.87 127.27 1416.86" stroke="#F6F5EF" stroke-width="1.45842"/>
<path opacity="0.421053" d="M1262.83 374.698C1070.2 274.533 846.155 332.035 751.501 457.364C633.185 614.026 693.271 794.056 610.202 959.303C548.892 1081.27 327.899 1345.52 81.2212 1362.51" stroke="#F6F5EF" stroke-width="1.45842"/>
<path opacity="0.473684" d="M1280.3 404.596C1067.53 342.837 930.945 350.601 821.028 466.245C683.631 610.801 721.572 794.415 618.331 950.618C542.132 1065.91 288.98 1307.83 40.4969 1302.63" stroke="#F6F5EF" stroke-width="1.45842"/>
<path opacity="0.526316" d="M1198.51 421.786C1146.67 397.332 1011.99 374.598 888.008 479.292C733.035 610.159 748.412 795.343 626.129 940.789C535.874 1048.14 253.335 1265.08 5.76852 1237.76" stroke="#F6F5EF" stroke-width="1.45842"/>
<path opacity="0.578947" d="M1269.16 467.017C1220.37 438.18 1088.62 403.655 951.941 496.254C781.087 612.002 773.729 796.727 633.739 929.827C530.416 1028.06 221.577 1217.66 -22.3626 1168.52" stroke="#F6F5EF" stroke-width="1.45842"/>
<path opacity="0.631579" d="M1332.78 516.153C1287.59 483.25 1160.23 437.316 1012.34 516.806C827.473 616.168 797.458 798.407 641.294 917.701C526.033 1005.75 194.279 1165.92 -43.3594 1095.51" stroke="#F6F5EF" stroke-width="1.45842"/>
<path opacity="0.684211" d="M1388.93 568.526C1347.82 531.92 1226.24 475.086 1068.76 540.597C871.911 622.485 819.566 800.234 648.938 904.416C523.002 981.31 171.965 1110.3 -56.7657 1019.4" stroke="#F6F5EF" stroke-width="1.45842"/>
<path opacity="0.736842" d="M1437.2 623.435C1400.63 583.531 1286.16 516.428 1120.82 567.243C914.14 630.762 840.036 802.064 656.813 889.991C521.581 954.888 155.108 1051.29 -62.2081 940.915" stroke="#F6F5EF" stroke-width="1.45842"/>
<path opacity="0.789474" d="M1477.28 680.141C1445.65 637.384 1339.55 560.762 1168.16 596.327C953.912 640.784 858.859 803.744 665.047 874.452C522 926.639 144.105 989.406 -59.4136 860.787" stroke="#F6F5EF" stroke-width="1.45842"/>
<path opacity="0.842105" d="M1508.97 737.876C1482.63 692.75 1386.07 607.481 1210.5 627.413C991.033 652.328 876.071 805.12 673.793 857.831C524.497 896.735 139.32 925.196 -48.1692 779.798" stroke="#F6F5EF" stroke-width="1.45842"/>
<path opacity="0.894737" d="M1532.14 796.083C1511.38 748.789 1425.41 655.233 1247.58 659.36C1025.31 664.518 891.694 806.373 683.166 840.748C529.257 866.12 141.018 859.971 -28.3866 698.399" stroke="#F6F5EF" stroke-width="1.45842"/>
<path opacity="0.947368" d="M1546.67 853.842C1531.72 805.22 1457.29 705.023 1279.18 693.205C1056.56 678.432 905.774 806.753 693.307 822.1C536.491 833.427 149.493 792.634 0.0505698 617.722" stroke="#F6F5EF" stroke-width="1.45842"/>
<path d="M1552.82 910.337C1543.84 860.885 1481.75 755.076 1305.3 727.465C1084.73 692.951 918.411 806.465 704.306 802.666C546.281 799.861 164.713 724.909 36.8503 538.459" stroke="#F6F5EF" stroke-width="1.45842"/>
</g>
</svg>
